<svg xmlns="http://www.w3.org/2000/svg" width="25.25" height="26.261" viewBox="0 0 25.25 26.261"><g transform="translate(-530.174 -322.246)"><path d="M542.764,328.025a7.906,7.906,0,1,0,7.885,7.871A7.857,7.857,0,0,0,542.764,328.025Zm5.8,8.4a2.079,2.079,0,0,1-3.793,1.195,2.683,2.683,0,0,1-2,.9,2.622,2.622,0,0,1,0-5.243,2.672,2.672,0,0,1,1.632.558V333.8a.52.52,0,1,1,1.041,0v2.622a1.041,1.041,0,1,0,2.082,0V335.9a4.72,4.72,0,1,0-4.755,4.8,4.859,4.859,0,0,0,2.918-.979.518.518,0,0,1,.73.1.527.527,0,0,1-.1.735,5.909,5.909,0,0,1-3.552,1.188,5.8,5.8,0,1,1,5.8-5.836Z"/><path d="M542.142,334.316a1.587,1.587,0,0,0,0,3.159,1.582,1.582,0,0,0,0-3.159Z" transform="translate(0.625)"/><path d="M545.55,322.246h-5.5a10.077,10.077,0,0,0-9.874,10.269v5.723a10.077,10.077,0,0,0,9.874,10.269h5.5a10.077,10.077,0,0,0,9.874-10.269v-5.723A10.077,10.077,0,0,0,545.55,322.246Zm-2.785,22.632A8.953,8.953,0,1,1,551.4,335.9,8.8,8.8,0,0,1,542.765,344.878Z"/></g></svg>