<svg xmlns="http://www.w3.org/2000/svg" xmlns:xlink="http://www.w3.org/1999/xlink" width="28" height="28.112" viewBox="0 0 28 28.112"><defs><clipPath id="a"><rect width="28" height="28.112" transform="translate(717.639 325.932)" fill="none"/></clipPath></defs><g transform="translate(-717.639 -325.932)"><g clip-path="url(#a)"><path d="M731.652,325.9a14.014,14.014,0,1,0,14.015,14.014A14.015,14.015,0,0,0,731.652,325.9Zm5.7,20.286v.969a.969.969,0,0,1-.969.97h-9.692a1.939,1.939,0,0,1-1.939-1.939v-12.2a1.939,1.939,0,0,1,1.939-1.939h9.692a.97.97,0,0,1,.969.97Zm1.939-12.2v13.165a.97.97,0,0,1-.969.97h-.263a1.928,1.928,0,0,0,.263-.97V333.025a1.924,1.924,0,0,0-.263-.969h.263a.969.969,0,0,1,.969.969Zm0,0"/></g><path d="M734.044,341.368s-.365-.438-.769-.136c-.3.225-.843.726-.973.848a10.788,10.788,0,0,1-1.442-.923,7.6,7.6,0,0,1-1.6-1.917l-.208-.391c.073-.078.627-.672.867-.995.3-.4-.135-.769-.135-.769s-1.232-1.231-1.513-1.476a.6.6,0,0,0-.6-.109,2.258,2.258,0,0,0-1.238,2.307c0,1.492,1.131,3.03,2.356,4.222,1.227,1.345,2.911,2.693,4.539,2.692a2.255,2.255,0,0,0,2.306-1.238.6.6,0,0,0-.109-.6c-.244-.281-1.476-1.512-1.476-1.512Zm0,0"/></g></svg>